<svg id="regular" enable-background="new 0 0 24 24" height="512" viewBox="0 0 24 24" width="512" xmlns="http://www.w3.org/2000/svg"><path d="m16.617 22.875h-7.703c-.375 0-.68-.311-.68-.695v-2.717l-1.943.543c-.139.053-.347.088-.568.088-1.108 0-2.01-.922-2.01-2.056v-2.58h-1.647c-.62 0-1.123-.516-1.123-1.149 0-.255.12-.473.375-.875l2.002-2.968c.176-.287.301-.627.358-.994l-.003-.04c-.008-.138-.017-.276-.017-.417 0-1.205.251-2.378.748-3.486.386-.924.927-1.751 1.604-2.442 1.55-1.587 3.613-2.462 5.808-2.462.28 0 .72.021.983.056 4.149.483 7.261 4.042 7.261 8.334 0 1.959-.675 3.863-1.904 5.369-.563 1.014-.86 2.13-.86 3.234v4.562c-.001.384-.305.695-.681.695z" fill="#ffcc80"/><path d="m21.475 10.038v.697c0 .591-.484 1.075-1.084 1.075h-1.782c-.523 0-1.084-.387-1.084-1.249v-.523z" fill="#607d8b"/><path d="m23.857 4.518c0 1.307-.581 2.527-1.598 3.35-.407.329-.668.755-.755 1.201-.019.107-.029.223-.029.329v.639h-3.951v-.735c0-.077-.01-.155-.019-.232-.068-.436-.31-.842-.707-1.152-1.075-.842-1.685-2.111-1.656-3.486.048-2.305 1.975-4.212 4.289-4.241 1.172-.029 2.295.426 3.137 1.259.834.812 1.289 1.907 1.289 3.068z" fill="#ffc107"/><path d="m3.762 9.815c-.414 0-.75-.336-.75-.75 0-2.5.899-4.776 2.533-6.41 1.712-1.712 3.988-2.655 6.409-2.655.414 0 .75.336.75.75s-.336.75-.75.75c-2.021 0-3.92.787-5.349 2.216-1.351 1.351-2.094 3.25-2.094 5.35.001.413-.335.749-.749.749z"/><path d="m17.25 24h-8.5c-.414 0-.75-.336-.75-.75v-2.929l-2.144.582c-.155.06-.379.097-.626.097-1.225 0-2.221-.996-2.221-2.22v-2.78h-1.819c-.684 0-1.24-.557-1.24-1.24 0-.276.132-.509.411-.938l2.212-3.208c.281-.437.437-.977.437-1.544 0-2.502.898-4.778 2.53-6.41.203-.204.419-.398.635-.582.239-.193.465-.365.701-.527.262-.171.499-.321.758-.461.287-.144.531-.266.785-.377.539-.233 1.136-.413 1.777-.539.267-.053.536-.096.816-.129 1.014-.107 2.028-.037 2.905.164.403.093.655.495.563.899-.093.403-.495.653-.899.563-.751-.173-1.655-.218-2.402-.136-.232.026-.463.063-.693.109-.538.107-1.031.255-1.468.445-.228.099-.45.211-.671.321-.222.119-.424.249-.637.388-.189.13-.384.278-.578.436-.171.145-.356.31-.53.486-1.35 1.349-2.092 3.249-2.092 5.35 0 .854-.238 1.676-.688 2.376l-2.108 3.054h2.046c.414 0 .75.336.75.75v3.53c0 .396.323.72.721.72.072 0 .125-.008.175-.025l3.148-.858c.226-.062.467-.015.651.128.187.141.295.361.295.595v3.16h7v-4.17c0-1.589.443-3.146 1.282-4.504.217-.353.679-.463 1.031-.244.353.217.462.68.244 1.031-.691 1.121-1.057 2.407-1.057 3.717v4.92c0 .414-.336.75-.75.75z"/><path d="m20.173 12h-1.346c-.659 0-1.327-.513-1.327-1.491v-1.285c0-.411-.186-.79-.485-.988-1.535-1.017-2.289-2.849-1.92-4.668.34-1.677 1.684-3.062 3.344-3.445 1.376-.316 2.78-.006 3.862.855 1.08.859 1.699 2.143 1.699 3.522 0 1.506-.755 2.903-2.019 3.738-.296.197-.481.583-.481 1.01v1.425c0 .731-.596 1.327-1.327 1.327zm-1.173-1.5h1v-1.252c0-.938.432-1.784 1.155-2.262.842-.555 1.345-1.485 1.345-2.486 0-.92-.413-1.775-1.134-2.35-.72-.571-1.66-.781-2.591-.567-1.097.254-1.985 1.171-2.21 2.282-.251 1.236.238 2.432 1.277 3.12.725.48 1.158 1.317 1.158 2.239z"/></svg>